<svg width="160" height="160" viewBox="0 0 160 160" fill="none" xmlns="http://www.w3.org/2000/svg">
<path d="M118.5 153C117.167 153.222 115.972 152.861 114.917 151.917C113.861 150.972 113.333 149.722 113.333 148.167C113.333 146.833 113.778 145.694 114.667 144.75C115.556 143.806 116.667 143.222 118 143C124.333 142 129.833 139.167 134.5 134.5C139.167 129.833 142 124.333 143 118C143.222 116.667 143.806 115.556 144.75 114.667C145.694 113.778 146.778 113.333 148 113.333C149.556 113.333 150.833 113.861 151.833 114.917C152.833 115.972 153.222 117.167 153 118.5C151.778 127.5 147.972 135.194 141.583 141.583C135.194 147.972 127.5 151.778 118.5 153ZM11.8333 46.6667C10.2777 46.6667 9.02774 46.1389 8.08329 45.0833C7.13885 44.0278 6.77774 42.8333 6.99996 41.5C8.22218 32.5 12.0277 24.8056 18.4166 18.4167C24.8055 12.0278 32.5 8.22224 41.5 7.00002C42.8333 6.77779 44.0277 7.1389 45.0833 8.08335C46.1388 9.02779 46.6666 10.2778 46.6666 11.8333C46.6666 13.1667 46.2222 14.3056 45.3333 15.25C44.4444 16.1945 43.3333 16.7778 42 17C35.6666 18 30.1666 20.8333 25.5 25.5C20.8333 30.1667 18 35.6667 17 42C16.7777 43.3333 16.1666 44.4445 15.1666 45.3333C14.1666 46.2222 13.0555 46.6667 11.8333 46.6667ZM41.6666 64.1667C40.7777 65.0556 40.3333 66.1389 40.3333 67.4167C40.3333 68.6945 40.7777 69.9445 41.6666 71.1667C44.4444 74.6111 46.0277 78.5833 46.4166 83.0833C46.8055 87.5833 45.5 91.8889 42.5 96C41.9444 96.6667 41.6944 97.4445 41.75 98.3333C41.8055 99.2222 42.1111 99.9445 42.6666 100.5C43.4444 101.278 44.3055 101.639 45.25 101.583C46.1944 101.528 46.9444 101.111 47.5 100.333C50.9444 95.7778 52.75 90.3889 52.9166 84.1667C53.0833 77.9445 51.2222 72.5 47.3333 67.8334L98.1666 17C99.8333 15.3333 101.806 14.5 104.083 14.5C106.361 14.5 108.333 15.3333 110 17C111.556 18.5556 112.389 20.4722 112.5 22.75C112.611 25.0278 111.778 27.0556 110 28.8333L75.8333 63C75.1666 63.6667 74.8333 64.4445 74.8333 65.3334C74.8333 66.2222 75.1111 67 75.6666 67.6667C76.3333 68.2222 77.1111 68.5278 78 68.5834C78.8889 68.6389 79.6666 68.3333 80.3333 67.6667L124 24C125.556 22.4445 127.528 21.6667 129.917 21.6667C132.306 21.6667 134.278 22.4445 135.833 24C137.389 25.5556 138.167 27.5278 138.167 29.9167C138.167 32.3056 137.389 34.2778 135.833 35.8333L92.3333 79.3333C91.6666 80 91.3333 80.8056 91.3333 81.75C91.3333 82.6945 91.6666 83.5 92.3333 84.1667C92.8889 84.8333 93.6389 85.1667 94.5833 85.1667C95.5277 85.1667 96.3333 84.8333 97 84.1667L133.5 47.6667C135.167 46 137.139 45.1667 139.417 45.1667C141.694 45.1667 143.667 46 145.333 47.6667C146.889 49.2222 147.667 51.1945 147.667 53.5833C147.667 55.9722 146.889 57.9445 145.333 59.5L104 100.667C103.333 101.333 103 102.111 103 103C103 103.889 103.333 104.667 104 105.333C104.667 106 105.444 106.361 106.333 106.417C107.222 106.472 108 106.167 108.667 105.5L135.833 78.3333C137.611 76.5556 139.639 75.7222 141.917 75.8333C144.194 75.9445 146.111 76.7778 147.667 78.3333C149.222 79.8889 150.056 81.8056 150.167 84.0834C150.278 86.3611 149.444 88.3889 147.667 90.1667L100.5 137.333C95.1666 142.667 89.1111 146.667 82.3333 149.333C75.5555 152 68.6389 153.333 61.5833 153.333C54.5277 153.333 47.6111 152 40.8333 149.333C34.0555 146.667 28 142.667 22.6666 137.333C17.3333 132 13.3333 125.944 10.6666 119.167C7.99996 112.389 6.66663 105.472 6.66663 98.4167C6.66663 91.3611 7.99996 84.4445 10.6666 77.6667C13.3333 70.8889 17.3333 64.8333 22.6666 59.5L53.3333 28.8333C54.8889 27.2778 56.8611 26.4445 59.25 26.3333C61.6388 26.2222 63.6666 27 65.3333 28.6667C66.8889 30.2222 67.6666 32.1945 67.6666 34.5833C67.6666 36.9722 66.8889 38.9445 65.3333 40.5L41.6666 64.1667Z" fill="#607D8B"/>
</svg>
