<svg width="160" height="160" viewBox="0 0 160 160" fill="none" xmlns="http://www.w3.org/2000/svg">
<path d="M121.833 137.167C119.944 137.167 118.139 136.806 116.417 136.083C114.694 135.361 113.111 134.278 111.667 132.833L74.5 95.3333C71.9444 96.2222 69.3888 96.9444 66.8333 97.5C64.2777 98.0556 61.6666 98.3333 59 98.3333C48.2222 98.3333 39.0555 94.5833 31.5 87.0833C23.9444 79.5833 20.1666 70.4444 20.1666 59.6667C20.1666 56.2222 20.6111 52.8611 21.5 49.5833C22.3888 46.3056 23.6666 43.2222 25.3333 40.3333L49.5 64.5L64.8333 50.1667L40 25.3333C42.8888 23.6667 45.9444 22.3611 49.1666 21.4167C52.3888 20.4722 55.6666 20 59 20C70 20 79.3611 23.8611 87.0833 31.5833C94.8055 39.3056 98.6666 48.6667 98.6666 59.6667C98.6666 62.3333 98.3888 64.9444 97.8333 67.5C97.2777 70.0556 96.5555 72.6111 95.6666 75.1667L132.5 112C133.944 113.444 135.028 115.083 135.75 116.917C136.472 118.75 136.833 120.667 136.833 122.667C136.833 124.667 136.444 126.583 135.667 128.417C134.889 130.25 133.722 131.833 132.167 133.167C130.611 134.5 128.972 135.5 127.25 136.167C125.528 136.833 123.722 137.167 121.833 137.167Z" fill="#3F51B5"/>
</svg>
