<svg width="160" height="160" viewBox="0 0 160 160" fill="none" xmlns="http://www.w3.org/2000/svg">
<path d="M118.5 153C117.167 153.222 115.972 152.861 114.917 151.917C113.861 150.972 113.333 149.722 113.333 148.167C113.333 146.833 113.778 145.694 114.667 144.75C115.556 143.806 116.667 143.222 118 143C124.333 142 129.833 139.167 134.5 134.5C139.167 129.833 142 124.333 143 118C143.222 116.667 143.806 115.556 144.75 114.667C145.695 113.778 146.778 113.333 148 113.333C149.556 113.333 150.833 113.861 151.833 114.917C152.833 115.972 153.222 117.167 153 118.5C151.778 127.5 147.972 135.194 141.583 141.583C135.195 147.972 127.5 151.778 118.5 153ZM11.8334 46.6667C10.2779 46.6667 9.02786 46.1389 8.08341 45.0833C7.13897 44.0278 6.77786 42.8333 7.00008 41.5C8.2223 32.5 12.0279 24.8056 18.4167 18.4167C24.8056 12.0278 32.5001 8.22224 41.5001 7.00002C42.8334 6.77779 44.0279 7.1389 45.0834 8.08335C46.139 9.02779 46.6667 10.2778 46.6667 11.8333C46.6667 13.1667 46.2223 14.3056 45.3334 15.25C44.4445 16.1945 43.3334 16.7778 42.0001 17C35.6667 18 30.1667 20.8333 25.5001 25.5C20.8334 30.1667 18.0001 35.6667 17.0001 42C16.7779 43.3333 16.1667 44.4445 15.1667 45.3333C14.1667 46.2222 13.0556 46.6667 11.8334 46.6667ZM41.6667 64.1667C40.7779 65.0556 40.3334 66.1389 40.3334 67.4167C40.3334 68.6945 40.7779 69.9445 41.6667 71.1667C44.4445 74.6111 46.0279 78.5833 46.4168 83.0833C46.8056 87.5833 45.5001 91.8889 42.5001 96C41.9445 96.6667 41.6945 97.4445 41.7501 98.3334C41.8056 99.2222 42.1112 99.9445 42.6668 100.5C43.4445 101.278 44.3056 101.639 45.2501 101.583C46.1945 101.528 46.9445 101.111 47.5001 100.333C50.9445 95.7778 52.7501 90.3889 52.9168 84.1667C53.0834 77.9445 51.2223 72.5 47.3334 67.8334L98.1668 17C99.8334 15.3333 101.806 14.5 104.083 14.5C106.361 14.5 108.333 15.3333 110 17C111.556 18.5556 112.389 20.4722 112.5 22.75C112.611 25.0278 111.778 27.0556 110 28.8333L75.8334 63C75.1667 63.6667 74.8334 64.4445 74.8334 65.3334C74.8334 66.2222 75.1112 67 75.6668 67.6667C76.3334 68.2222 77.1112 68.5278 78.0001 68.5834C78.889 68.6389 79.6668 68.3333 80.3334 67.6667L124 24C125.556 22.4445 127.528 21.6667 129.917 21.6667C132.306 21.6667 134.278 22.4445 135.833 24C137.389 25.5556 138.167 27.5278 138.167 29.9167C138.167 32.3056 137.389 34.2778 135.833 35.8333L92.3334 79.3333C91.6668 80 91.3334 80.8056 91.3334 81.75C91.3334 82.6945 91.6668 83.5 92.3334 84.1667C92.889 84.8334 93.639 85.1667 94.5834 85.1667C95.5279 85.1667 96.3334 84.8334 97.0001 84.1667L133.5 47.6667C135.167 46 137.139 45.1667 139.417 45.1667C141.695 45.1667 143.667 46 145.333 47.6667C146.889 49.2222 147.667 51.1945 147.667 53.5834C147.667 55.9722 146.889 57.9445 145.333 59.5L104 100.667C103.333 101.333 103 102.111 103 103C103 103.889 103.333 104.667 104 105.333C104.667 106 105.445 106.361 106.333 106.417C107.222 106.472 108 106.167 108.667 105.5L135.833 78.3334C137.611 76.5556 139.639 75.7222 141.917 75.8334C144.195 75.9445 146.111 76.7778 147.667 78.3334C149.222 79.8889 150.056 81.8056 150.167 84.0834C150.278 86.3611 149.445 88.3889 147.667 90.1667L100.5 137.333C95.1667 142.667 89.1112 146.667 82.3334 149.333C75.5556 152 68.639 153.333 61.5834 153.333C54.5279 153.333 47.6112 152 40.8334 149.333C34.0556 146.667 28.0001 142.667 22.6667 137.333C17.3334 132 13.3334 125.944 10.6667 119.167C8.00008 112.389 6.66675 105.472 6.66675 98.4167C6.66675 91.3611 8.00008 84.4445 10.6667 77.6667C13.3334 70.8889 17.3334 64.8333 22.6667 59.5L53.3334 28.8333C54.889 27.2778 56.8612 26.4445 59.2501 26.3333C61.639 26.2222 63.6668 27 65.3334 28.6667C66.889 30.2222 67.6667 32.1945 67.6667 34.5833C67.6667 36.9722 66.889 38.9445 65.3334 40.5L41.6667 64.1667Z" fill="#9C27B0"/>
</svg>
