<svg width="160" height="160" viewBox="0 0 160 160" fill="none" xmlns="http://www.w3.org/2000/svg">
<path d="M80.1666 105C77.6111 105 75.5833 104.111 74.0833 102.333C72.5833 100.556 72 98.3889 72.3333 95.8333C72.8889 91.8333 74.0833 88.2778 75.9166 85.1667C77.75 82.0556 80.5555 78.8333 84.3333 75.5C89 71.2778 92.5833 67.3611 95.0833 63.75C97.5833 60.1389 98.8333 56.2778 98.8333 52.1667C98.8333 47.1667 97.1666 43 93.8333 39.6667C90.5 36.3333 85.8333 34.6667 79.8333 34.6667C75.7222 34.6667 72.3055 35.5 69.5833 37.1667C66.8611 38.8333 64.6666 40.8889 63 43.3333C61.7777 45.1111 60.2222 46.3333 58.3333 47C56.4444 47.6667 54.6111 47.6111 52.8333 46.8333C50.6111 45.9444 49.25 44.3333 48.75 42C48.25 39.6667 48.6111 37.5556 49.8333 35.6667C52.9444 31.1111 57.0277 27.3611 62.0833 24.4167C67.1389 21.4722 73.0555 20 79.8333 20C90.9444 20 99.5 23.0833 105.5 29.25C111.5 35.4167 114.5 42.8333 114.5 51.5C114.5 56.8333 113.361 61.6667 111.083 66C108.806 70.3333 105.167 74.8889 100.167 79.6667C96.2777 83.4444 93.5555 86.5 92 88.8333C90.4444 91.1667 89.4444 93.8333 89 96.8333C88.6666 99.1667 87.6666 101.111 86 102.667C84.3333 104.222 82.3889 105 80.1666 105ZM79.8333 146.667C76.6111 146.667 73.8611 145.528 71.5833 143.25C69.3055 140.972 68.1666 138.222 68.1666 135C68.1666 131.778 69.3055 129.028 71.5833 126.75C73.8611 124.472 76.6111 123.333 79.8333 123.333C83.0555 123.333 85.8055 124.472 88.0833 126.75C90.3611 129.028 91.5 131.778 91.5 135C91.5 138.222 90.3611 140.972 88.0833 143.25C85.8055 145.528 83.0555 146.667 79.8333 146.667Z" fill="#009688"/>
</svg>
